<svg xmlns="http://www.w3.org/2000/svg" viewBox="0 0 64 64" width="64" height="64">
  <!-- Ground / logs -->
  <ellipse cx="32" cy="54" rx="18" ry="5" fill="#6B3A1F"/>
  <!-- Left log -->
  <rect x="10" y="49" width="28" height="7" rx="3.5" fill="#8B4513" transform="rotate(-20 24 52)"/>
  <!-- Right log -->
  <rect x="26" y="49" width="28" height="7" rx="3.5" fill="#7A3D10" transform="rotate(20 40 52)"/>
  <!-- Embers glow -->
  <ellipse cx="32" cy="51" rx="12" ry="4" fill="#FF4500" opacity="0.7"/>
  <!-- Outer flame — largest, orange-red -->
  <path d="M32 48 C20 40 18 28 24 18 C22 24 28 26 27 20 C28 14 32 8 32 8 C32 8 36 14 37 20 C36 26 42 24 40 18 C46 28 44 40 32 48Z"
        fill="#FF4500"/>
  <!-- Mid flame — orange -->
  <path d="M32 46 C23 38 22 28 27 20 C26 26 30 28 29 22 C30 16 32 12 32 12 C32 12 34 16 35 22 C34 28 38 26 37 20 C42 28 41 38 32 46Z"
        fill="#FF7A00"/>
  <!-- Inner flame — yellow -->
  <path d="M32 44 C26 37 25 29 29 22 C28 27 31 29 30 24 C31 19 32 16 32 16 C32 16 33 19 34 24 C33 29 36 27 35 22 C39 29 38 37 32 44Z"
        fill="#FFD700"/>
  <!-- Core — bright white-yellow tip -->
  <path d="M32 40 C29 35 28 30 30 25 C30 28 32 30 32 30 C32 30 34 28 34 25 C36 30 35 35 32 40Z"
        fill="#FFFACD"/>
  <!-- Sparkles -->
  <circle cx="22" cy="22" r="1.5" fill="#FFD700" opacity="0.9"/>
  <circle cx="41" cy="18" r="1.2" fill="#FF7A00" opacity="0.8"/>
  <circle cx="18" cy="34" r="1" fill="#FF4500" opacity="0.7"/>
  <circle cx="44" cy="30" r="1.3" fill="#FFD700" opacity="0.85"/>
  <circle cx="27" cy="14" r="1" fill="#FFFACD" opacity="0.6"/>
</svg>
